<svg xmlns="http://www.w3.org/2000/svg" width="342" height="230" viewBox="0 0 342 230" fill="none"><rect width="342" height="230" rx="4" fill="#ACD0BE"></rect><rect x="163.845" y="48.4864" width="164.879" height="131.742" rx="7.67819" transform="rotate(13.3229 163.845 48.4864)" fill="#0E1330" stroke="#282D45" stroke-width="0.80823"></rect><path d="M171.441 73.6329C173.776 74.1857 175.772 72.9258 176.332 70.5585C176.901 68.1581 175.649 66.129 173.27 65.5658L170.452 64.8983L168.546 72.9471L171.441 73.6329ZM172.831 66.8338C174.493 67.2275 175.25 68.4998 174.846 70.2065C174.45 71.8801 173.225 72.683 171.617 72.3024L170.263 71.9816L171.553 66.5313L172.831 66.8338ZM178.083 75.3568C178.93 75.5575 179.759 75.3469 180.124 74.8401L180.032 75.6673L181.21 75.9463L181.993 72.6431C182.35 71.1347 181.635 70.1281 180.17 69.7813C178.695 69.4319 177.543 69.9732 177.264 71.1513L178.41 71.4225C178.545 70.8499 179.064 70.6239 179.857 70.8117C180.539 70.9733 180.909 71.3749 180.735 72.1126L180.706 72.2337L179.048 71.969C177.736 71.763 176.861 72.2185 176.623 73.2205C176.381 74.2445 176.926 75.083 178.083 75.3568ZM178.763 74.4481C178.157 74.3047 177.884 73.9842 178.002 73.4887C178.106 73.0483 178.49 72.8487 179.346 72.9697L180.5 73.1502L180.433 73.4365C180.235 74.2733 179.589 74.6436 178.763 74.4481ZM182.503 74.5081C182.25 75.5762 182.937 76.5063 184.291 76.827C185.634 77.1451 186.732 76.6841 186.993 75.583C187.191 74.7462 186.827 74.2183 185.963 73.7926L185.038 73.3294C184.601 73.1097 184.406 72.8542 184.479 72.5459C184.576 72.1385 184.941 71.9693 185.47 72.0944C185.987 72.217 186.225 72.5873 186.127 73.0523L187.404 73.3548C187.643 72.2952 186.984 71.3949 185.762 71.1055C184.507 70.8082 183.453 71.233 183.2 72.3011C182.994 73.1709 183.358 73.7455 184.286 74.1978L185.211 74.6611C185.669 74.8859 185.765 75.118 185.7 75.3933C185.606 75.7896 185.205 75.9621 184.578 75.8134C183.961 75.6674 183.679 75.2867 183.78 74.8106L182.503 74.5081ZM188.97 77.7839L189.674 74.811C189.867 73.9962 190.503 73.519 191.351 73.7198C192.034 73.8814 192.381 74.4288 192.165 75.3427L191.448 78.3706L192.791 78.6887L193.584 75.3414C193.917 73.9321 193.413 72.9174 192.07 72.5993C191.288 72.4141 190.569 72.6042 190.102 73.0519L190.921 69.5946L189.567 69.2738L187.627 77.4658L188.97 77.7839ZM195.355 79.2959L195.644 78.4689C195.814 79.1722 196.422 79.6998 197.237 79.8927C198.8 80.263 200.098 79.3494 200.495 77.6757C200.901 75.9581 200.241 74.5226 198.689 74.155C197.863 73.9594 197.05 74.1507 196.554 74.6728L197.394 71.1274L196.051 70.8093L194.111 79.0013L195.355 79.2959ZM196.114 76.5803C196.346 75.6004 197.114 75.0611 198.039 75.2801C198.985 75.5044 199.383 76.331 199.153 77.3C198.924 78.2689 198.201 78.8186 197.254 78.5943C196.329 78.3753 195.882 77.5603 196.114 76.5803ZM201.255 77.8094C200.854 79.505 201.799 80.9616 203.484 81.3605C205.169 81.7595 206.667 80.8817 207.069 79.1861C207.47 77.4905 206.525 76.0339 204.84 75.6349C203.155 75.236 201.657 76.1137 201.255 77.8094ZM202.599 78.1275C202.833 77.1365 203.631 76.6161 204.556 76.8351C205.481 77.0541 205.96 77.877 205.726 78.868C205.491 79.859 204.693 80.3794 203.768 80.1603C202.843 79.9413 202.364 79.1184 202.599 78.1275ZM209.072 82.6953C209.919 82.8961 210.748 82.6854 211.113 82.1786L211.021 83.0059L212.2 83.2849L212.982 79.9817C213.339 78.4732 212.624 77.4666 211.159 77.1198C209.684 76.7704 208.533 77.3117 208.254 78.4899L209.399 78.7611C209.534 78.1885 210.053 77.9625 210.846 78.1502C211.528 78.3119 211.898 78.7135 211.724 79.4512L211.695 79.5723L210.037 79.3075C208.725 79.1015 207.85 79.5571 207.612 80.559C207.37 81.583 207.916 82.4216 209.072 82.6953ZM209.752 81.7867C209.146 81.6432 208.873 81.3228 208.991 80.8273C209.095 80.3869 209.48 80.1872 210.335 80.3083L211.49 80.4888L211.422 80.7751C211.224 81.6119 210.578 81.9822 209.752 81.7867ZM218.226 78.9444C218.019 78.8372 217.837 78.7709 217.65 78.7265C216.923 78.5544 216.319 78.7952 215.96 79.28L216.071 78.469L214.805 78.1691L213.519 83.5974L214.863 83.9155L215.488 81.2729C215.739 80.2159 216.467 79.8418 217.436 80.0713L217.931 80.1886L218.226 78.9444ZM219.86 85.2502C220.686 85.4458 221.477 85.2493 221.956 84.6999L221.843 85.5686L223.076 85.8606L225.016 77.6687L223.684 77.3531L222.868 80.7995C222.654 80.1791 222.058 79.7008 221.298 79.5209C219.658 79.1324 218.38 80.1089 217.979 81.8045C217.58 83.4891 218.286 84.8773 219.86 85.2502ZM220.45 84.0874C219.514 83.8658 219.103 83.0475 219.332 82.0786C219.562 81.1096 220.299 80.5515 221.234 80.7732C222.17 80.9948 222.614 81.8209 222.382 82.8008C222.15 83.7808 221.385 84.309 220.45 84.0874ZM229.051 87.2756L229.763 84.2697L231.492 84.6791L232.145 88.0083L233.687 88.3733L232.939 84.7077C233.977 84.5466 234.666 83.8958 234.921 82.8167C235.297 81.2312 234.448 80.0533 232.62 79.6205L229.548 78.893L227.642 86.9419L229.051 87.2756ZM230.66 80.482L232.323 80.8757C233.215 81.0869 233.636 81.6635 233.446 82.4673C233.253 83.2821 232.612 83.6304 231.721 83.4192L230.058 83.0255L230.66 80.482ZM236.833 89.2694C238.253 89.6058 239.413 89.1248 239.926 87.9904L238.682 87.6957C238.405 88.1767 237.853 88.3483 237.115 88.1736C236.223 87.9624 235.832 87.358 235.959 86.3766L240.058 87.3355L240.155 86.9281C240.556 85.2325 239.779 83.8973 238.15 83.5114C236.553 83.1333 235.162 84.0481 234.758 85.7548C234.359 87.4394 235.214 88.8861 236.833 89.2694ZM237.9 84.6151C238.704 84.8054 239.104 85.4235 238.927 86.1722L236.196 85.5255C236.521 84.742 237.107 84.4274 237.9 84.6151ZM239.965 92.5229L241.308 92.841L242.078 89.5929C242.288 90.2242 242.918 90.7104 243.732 90.9034C245.351 91.2867 246.568 90.2725 246.969 88.5768C247.374 86.8702 246.624 85.5182 245.093 85.1558C244.268 84.9602 243.466 85.1541 242.987 85.7035L243.094 84.8568L241.85 84.5622L239.965 92.5229ZM242.56 87.6025C242.793 86.6226 243.56 86.0833 244.485 86.3024C245.432 86.5266 245.829 87.3532 245.599 88.3222C245.37 89.2911 244.647 89.8408 243.7 89.6166C242.775 89.3975 242.328 88.5825 242.56 87.6025ZM247.707 88.8096C247.305 90.5052 248.251 91.9618 249.936 92.3607C251.62 92.7597 253.119 91.882 253.52 90.1863C253.922 88.4907 252.976 87.0341 251.291 86.6352C249.607 86.2362 248.108 87.1139 247.707 88.8096ZM249.05 89.1277C249.285 88.1367 250.082 87.6163 251.007 87.8353C251.932 88.0543 252.412 88.8772 252.177 89.8682C251.942 90.8592 251.145 91.3796 250.22 91.1606C249.295 90.9415 248.815 90.1186 249.05 89.1277ZM258.645 88.5161C258.438 88.4089 258.256 88.3426 258.069 88.2982C257.342 88.1261 256.738 88.3669 256.379 88.8517L256.49 88.0407L255.224 87.7408L253.938 93.1691L255.282 93.4872L255.907 90.8447C256.158 89.7876 256.886 89.4135 257.855 89.643L258.35 89.7603L258.645 88.5161ZM260.326 94.6817L261.348 90.3655L262.405 90.6158L262.671 89.4927L261.614 89.2424L262.015 87.5468L260.672 87.2287L260.271 88.9243L259.225 88.6766L258.959 89.7997L260.005 90.0474L258.982 94.3636L260.326 94.6817Z" fill="#8F9BB7"></path><line x1="185.039" y1="97.526" x2="302.225" y2="125.277" stroke="#282D45" stroke-width="0.80823"></line><line x1="179.452" y1="121.12" x2="296.637" y2="148.871" stroke="#282D45" stroke-width="0.80823"></line><line x1="173.865" y1="144.714" x2="291.05" y2="172.465" stroke="#282D45" stroke-width="0.80823"></line><line x1="168.277" y1="168.309" x2="285.463" y2="196.059" stroke="#282D45" stroke-width="0.80823"></line><path d="M165.274 90.9502L163.897 96.7639L165.058 97.0388L166.692 90.1398L164.021 89.5073L163.764 90.5926L165.274 90.9502ZM167.046 93.8816C166.541 96.0145 167.289 97.6966 169.12 98.1302C170.951 98.5638 172.383 97.3979 172.888 95.265C173.395 93.1226 172.579 91.3943 170.814 90.9764C169.049 90.5584 167.553 91.7392 167.046 93.8816ZM168.235 94.1632C168.622 92.5304 169.476 91.7858 170.561 92.0428C171.656 92.3021 172.085 93.3507 171.699 94.9834C171.321 96.5784 170.467 97.323 169.372 97.0637C168.287 96.8067 167.857 95.7581 168.235 94.1632ZM173.7 95.4574C173.195 97.5903 173.943 99.2724 175.774 99.706C177.605 100.14 179.037 98.9738 179.542 96.8408C180.05 94.6985 179.233 92.9701 177.468 92.5522C175.703 92.1343 174.208 93.315 173.7 95.4574ZM174.889 95.739C175.276 94.1063 176.13 93.3616 177.216 93.6187C178.31 93.8779 178.74 94.9265 178.353 96.5592C177.975 98.1542 177.121 98.8988 176.027 98.6395C174.941 98.3825 174.512 97.334 174.889 95.739Z" fill="#8F9BB7"></path><path d="M163.738 116.5C162.716 117.365 162.3 117.904 162.103 118.734C161.768 120.15 162.622 121.508 164.113 121.862C165.586 122.21 166.924 121.441 167.273 119.969C167.603 118.572 166.878 117.343 165.453 117.006C165.283 116.966 165.097 116.951 164.916 116.958L167.088 115.151L165.71 114.824L163.738 116.5ZM163.337 119.037C163.534 118.206 164.218 117.76 165.039 117.954C165.831 118.142 166.252 118.85 166.055 119.68C165.856 120.52 165.151 120.971 164.368 120.786C163.556 120.593 163.138 119.876 163.337 119.037ZM168.27 119.088C167.765 121.221 168.512 122.903 170.343 123.337C172.174 123.771 173.607 122.605 174.112 120.472C174.619 118.329 173.802 116.601 172.037 116.183C170.273 115.765 168.777 116.946 168.27 119.088ZM169.459 119.37C169.845 117.737 170.7 116.993 171.785 117.25C172.88 117.509 173.309 118.557 172.922 120.19C172.545 121.785 171.691 122.53 170.596 122.27C169.511 122.013 169.081 120.965 169.459 119.37Z" fill="#8F9BB7"></path><path d="M158.678 142.585C159.64 142.813 159.973 143.43 159.807 144.128C159.626 144.893 159.01 145.265 158.255 145.086C157.519 144.912 157.135 144.343 157.323 143.55L156.134 143.268C155.781 144.759 156.631 145.838 157.981 146.158C159.378 146.488 160.694 145.853 161.03 144.438C161.318 143.22 160.68 142.252 159.672 141.794L161.719 140.644L161.947 139.681L157.568 138.644L157.315 139.711L160.184 140.39L158.023 141.603L157.838 142.386L158.678 142.585ZM162.017 143.356C161.512 145.489 162.259 147.171 164.09 147.604C165.921 148.038 167.354 146.872 167.859 144.739C168.366 142.597 167.549 140.869 165.785 140.451C164.02 140.033 162.524 141.213 162.017 143.356ZM163.206 143.637C163.593 142.005 164.447 141.26 165.532 141.517C166.627 141.776 167.056 142.825 166.67 144.458C166.292 146.053 165.438 146.797 164.343 146.538C163.258 146.281 162.828 145.232 163.206 143.637Z" fill="#8F9BB7"></path><path d="M156.375 167.768C155.87 169.901 156.618 171.583 158.449 172.017C160.28 172.45 161.712 171.284 162.217 169.151C162.724 167.009 161.908 165.281 160.143 164.863C158.378 164.445 156.883 165.626 156.375 167.768ZM157.564 168.05C157.951 166.417 158.805 165.672 159.89 165.929C160.985 166.188 161.415 167.237 161.028 168.87C160.65 170.465 159.796 171.209 158.701 170.95C157.616 170.693 157.187 169.645 157.564 168.05Z" fill="#8F9BB7"></path><path d="M171.599 159.544C175.497 162.959 184.337 167.815 190.795 166.166C200.078 163.796 206.909 156.583 213.644 143.337C218.92 132.959 223.081 129.791 233.284 130.546C249.089 131.716 254.447 137.634 257.541 142.105C260.635 146.575 261.298 152.546 270.736 154.781C280.173 157.016 288.7 133.287 295.871 134.57" stroke="#32CAFD" stroke-width="1.61646"></path><path d="M174.02 149.32C183.099 148.978 202.354 151.378 206.742 163.713C212.227 179.132 220.749 179.706 224.562 177.9C229.239 175.686 234.868 155.424 246.686 159.883C258.504 164.343 275.558 148.448 277.193 138.037C278.827 127.627 291.98 121.19 300.466 125.691" stroke="#7214FF" stroke-width="1.61646"></path><circle cx="103" cy="41" r="22" fill="#FFC933"></circle><rect width="24" height="24" transform="translate(91 29)" fill="#FFC933"></rect><path d="M108.919 43.3201C108.66 43.5711 108.541 43.9341 108.6 44.2901L109.489 49.2101C109.564 49.6271 109.388 50.0491 109.039 50.2901C108.697 50.5401 108.242 50.5701 107.869 50.3701L103.44 48.0601C103.286 47.9781 103.115 47.9341 102.94 47.9291H102.669C102.575 47.9431 102.483 47.9731 102.399 48.0191L97.9685 50.3401C97.7495 50.4501 97.5015 50.4891 97.2585 50.4501C96.6665 50.3381 96.2715 49.7741 96.3685 49.1791L97.2585 44.2591C97.3175 43.9001 97.1985 43.5351 96.9395 43.2801L93.3285 39.7801C93.0265 39.4871 92.9215 39.0471 93.0595 38.6501C93.1935 38.2541 93.5355 37.9651 93.9485 37.9001L98.9185 37.1791C99.2965 37.1401 99.6285 36.9101 99.7985 36.5701L101.989 32.0801C102.041 31.9801 102.108 31.8881 102.189 31.8101L102.279 31.7401C102.326 31.6881 102.38 31.6451 102.44 31.6101L102.549 31.5701L102.719 31.5001H103.14C103.516 31.5391 103.847 31.7641 104.02 32.1001L106.239 36.5701C106.399 36.8971 106.71 37.1241 107.069 37.1791L112.039 37.9001C112.459 37.9601 112.81 38.2501 112.949 38.6501C113.08 39.0511 112.967 39.4911 112.659 39.7801L108.919 43.3201Z" fill="black"></path><rect x="25.5346" y="92.7836" width="87" height="111" rx="5.5" transform="rotate(-4.11899 25.5346 92.7836)" fill="#0E1330" stroke="#282D45"></rect><circle cx="71.3285" cy="123.073" r="19" transform="rotate(-4.11899 71.3285 123.073)" fill="#7214FF"></circle><g clip-path="url(#clip0_7_17455)"><path d="M73.1742 114.064C75.9529 113.506 77.8381 114.767 78.4043 117.544L79.9369 125.175C80.4947 127.953 79.2346 129.846 76.4559 130.404L68.8257 131.937C66.0471 132.495 64.1544 131.234 63.5965 128.457L62.0639 120.826C61.5059 118.047 62.7654 116.154 65.5441 115.596L73.1742 114.064ZM70.4457 118.122C70.1883 118.03 69.9105 118.085 69.7186 118.268C69.5249 118.451 69.4542 118.729 69.5288 118.978L71.2008 127.303C71.313 127.646 71.6588 127.849 72.002 127.78C72.3541 127.709 72.5949 127.389 72.557 127.031L70.885 118.706C70.8668 118.446 70.6941 118.216 70.4457 118.122ZM67.1684 121.568C66.92 121.474 66.6414 121.53 66.4495 121.713C66.2559 121.896 66.1849 122.173 66.2605 122.422L67.3943 128.068C67.4967 128.413 67.8433 128.615 68.1946 128.545C68.5468 128.474 68.7876 128.154 68.7497 127.796L67.6159 122.15C67.5902 121.891 67.4161 121.663 67.1684 121.568ZM75.3289 123.015C75.0812 122.92 74.8034 122.976 74.6025 123.161C74.409 123.344 74.3363 123.613 74.4217 123.869L74.9599 126.548C75.0631 126.893 75.4089 127.096 75.7611 127.025C76.1042 126.956 76.345 126.636 76.3161 126.276L75.7779 123.596C75.749 123.329 75.5782 123.109 75.3289 123.015Z" fill="#060B27"></path></g><path d="M56.875 156.675L57.9369 171.42L60.8813 171.208L59.6211 153.71L52.8466 154.197L53.0449 156.95L56.875 156.675ZM68.4066 161.956C70.8483 161.78 72.0904 162.99 72.218 164.761C72.3576 166.7 71.1785 168.036 69.2635 168.174C67.3963 168.309 66.0688 167.249 65.924 165.239L62.9078 165.456C63.1802 169.238 65.989 171.153 69.4121 170.907C72.955 170.652 75.5919 168.176 75.3334 164.585C75.111 161.497 72.887 159.684 70.168 159.351L74.1463 155.118L73.9704 152.676L62.8632 153.476L63.058 156.181L70.3352 155.657L66.133 160.122L66.2761 162.109L68.4066 161.956ZM90.8916 165.702L90.6985 163.021L88.5681 163.175L87.7406 151.685L83.8866 151.962L76.7906 164.023L76.9836 166.704L85.8646 166.065L86.1042 169.392L89.0007 169.183L88.7611 165.856L90.8916 165.702ZM80.0461 163.789L85.082 155.197L85.6716 163.383L80.0461 163.789Z" fill="#8F9BB7"></path><path d="M60.0801 185.365C61.7677 185.244 62.7844 183.991 62.668 182.375C62.5482 180.712 61.3789 179.677 59.6793 179.799L56.316 180.042L56.9392 188.695L58.1121 188.611L57.8897 185.523L60.0801 185.365ZM59.5516 180.867C60.6528 180.788 61.3559 181.363 61.4343 182.452C61.5111 183.518 60.9139 184.246 59.7529 184.33L57.8139 184.47L57.5648 181.01L59.5516 180.867ZM67.1547 182.028C66.9238 181.997 66.7545 181.985 66.551 182C65.7491 182.057 65.192 182.507 64.9965 183.134L64.8609 182.254L63.8077 182.329L64.2283 188.17L65.3534 188.089L65.1301 184.989C65.0491 183.864 65.6609 183.171 66.7261 183.094L67.2288 183.058L67.1547 182.028ZM67.8303 184.963C67.9604 186.771 69.3444 187.946 71.1039 187.82C72.8514 187.694 74.0526 186.332 73.9225 184.525C73.7923 182.717 72.4083 181.542 70.6608 181.668C68.9014 181.794 67.7001 183.156 67.8303 184.963ZM68.9673 184.881C68.8794 183.661 69.5962 182.755 70.7332 182.673C71.8583 182.592 72.7095 183.385 72.7974 184.606C72.8853 185.826 72.1566 186.733 71.0315 186.814C69.8944 186.896 69.0552 186.102 68.9673 184.881ZM75.4202 180.086C75.8151 180.057 76.1381 179.697 76.1088 179.29C76.0786 178.871 75.7083 178.573 75.3133 178.601C74.8944 178.632 74.5945 178.978 74.6246 179.397C74.654 179.804 75.0013 180.116 75.4202 180.086ZM74.0863 190.131C74.4283 190.203 74.6207 190.201 74.9199 190.18C76.057 190.098 76.6507 189.321 76.5662 188.148L76.0827 181.433L74.9576 181.515L75.4334 188.121C75.4808 188.78 75.2878 189.106 74.7492 189.145C74.5696 189.158 74.4362 189.144 74.2045 189.1L74.0863 190.131ZM80.6734 187.13C82.1216 187.026 83.0522 186.249 83.249 184.972L82.1957 185.048C82.0525 185.732 81.5038 186.132 80.6301 186.195C79.517 186.275 78.8215 185.64 78.649 184.413L83.1724 184.075L83.1422 183.656C83.0172 181.921 81.8453 180.85 80.1816 180.97C78.482 181.092 77.4124 182.445 77.5443 184.276C77.6753 186.095 78.9498 187.255 80.6734 187.13ZM80.2497 181.915C81.2431 181.844 81.924 182.445 81.9938 183.414L78.6186 183.657C78.6881 182.617 79.2682 181.986 80.2497 181.915ZM84.0314 183.809C84.1641 185.652 85.3891 186.791 87.1126 186.667C88.525 186.565 89.5529 185.637 89.689 184.352L88.5639 184.433C88.4104 185.142 87.8421 185.604 87.0402 185.661C85.975 185.738 85.2341 184.973 85.1436 183.717C85.0523 182.448 85.7238 181.581 86.789 181.505C87.543 181.45 88.1699 181.802 88.4149 182.531L89.54 182.45C89.2425 181.16 88.1529 180.396 86.6807 180.502C84.9691 180.625 83.8995 181.977 84.0314 183.809ZM92.67 186.122L92.3166 181.215L93.4656 181.132L93.3975 180.187L92.2485 180.269L92.1166 178.438L90.9916 178.519L91.1234 180.35L89.9744 180.433L90.0425 181.379L91.1915 181.296L91.5449 186.203L92.67 186.122Z" fill="#8F9BB7"></path><defs><clipPath id="clip0_7_17455"><rect width="20" height="20" fill="white" transform="translate(59.2268 115.165) rotate(-11.3557)"></rect></clipPath></defs></svg>