<svg xmlns="http://www.w3.org/2000/svg" fill="none" viewBox="0 0 298 298" height="298" width="298">
<g clip-path="url(#clip0_1140_29834)">
<path fill="black" d="M149 279.375C221.004 279.375 279.375 221.004 279.375 149C279.375 76.9959 221.004 18.625 149 18.625C76.9959 18.625 18.625 76.9959 18.625 149C18.625 221.004 76.9959 279.375 149 279.375Z"></path>
<path fill="black" d="M298 149C298 231.29 231.29 298 149 298C66.7096 298 0 231.29 0 149C0 66.7096 66.7096 0 149 0C231.29 0 298 66.7096 298 149ZM279.375 149C279.375 221.004 221.004 279.375 149 279.375C76.9959 279.375 18.625 221.004 18.625 149C18.625 76.9959 76.9959 18.625 149 18.625C221.004 18.625 279.375 76.9959 279.375 149Z" clip-rule="evenodd" fill-rule="evenodd"></path>
<path fill="url(#paint0_linear_1140_29834)" d="M235.418 246.635L117.74 95.0527H95.0483V202.904H113.201V118.106L221.114 257.531L235.418 246.635Z"></path>
<path fill="url(#paint1_linear_1140_29834)" d="M204.447 95.0527H186.464V202.949H204.447V95.0527Z"></path>
</g>
<defs>
<linearGradient gradientUnits="userSpaceOnUse" y2="254.65" x2="230.668" y1="188.713" x1="177.469" id="paint0_linear_1140_29834">
<stop stop-color="white"></stop>
<stop stop-opacity="0" stop-color="white" offset="1"></stop>
</linearGradient>
<linearGradient gradientUnits="userSpaceOnUse" y2="174.289" x2="195.154" y1="95.0527" x1="195.455" id="paint1_linear_1140_29834">
<stop stop-color="white"></stop>
<stop stop-opacity="0" stop-color="white" offset="1"></stop>
</linearGradient>
<clipPath id="clip0_1140_29834">
<rect fill="white" height="298" width="298"></rect>
</clipPath>
</defs>
</svg>
